<?xml version="1.0" standalone="no"?>
<!DOCTYPE svg PUBLIC "-//W3C//DTD SVG 20010904//EN"
 "http://www.w3.org/TR/2001/REC-SVG-20010904/DTD/svg10.dtd">
<svg version="1.0" xmlns="http://www.w3.org/2000/svg"
 width="400.000000pt" height="400.000000pt" viewBox="0 0 400.000000 400.000000"
 preserveAspectRatio="xMidYMid meet">

<g transform="translate(0.000000,400.000000) scale(0.100000,-0.100000)"
fill="#000000" stroke="none">
<path d="M1625 3489 c-111 -60 -227 -157 -280 -233 -11 -16 -27 -37 -35 -46
-8 -9 -21 -27 -28 -39 -79 -136 -118 -240 -134 -363 l-13 -91 -51 -38 c-87
-64 -152 -156 -184 -258 -19 -62 -22 -89 -18 -189 3 -109 6 -123 41 -202 42
-98 45 -118 17 -153 -45 -57 -11 -138 84 -196 31 -18 59 -31 64 -29 5 1 3 21
-4 43 -11 34 -12 35 -8 8 7 -41 -7 -42 -61 -5 -78 54 -104 122 -65 172 26 34
25 69 -6 137 -73 161 -72 349 2 494 28 55 135 174 163 182 25 6 31 -10 31 -85
0 -34 3 -58 6 -55 4 4 8 73 10 154 2 149 6 169 44 277 35 103 156 304 183 306
4 0 12 -12 18 -27 19 -52 62 -138 85 -172 l22 -33 -28 -62 c-15 -33 -63 -135
-107 -226 -44 -91 -83 -178 -86 -195 -7 -32 -2 -22 70 135 19 41 37 77 40 80
2 2 28 7 56 11 l52 6 -47 2 c-27 0 -48 4 -48 8 0 4 17 40 37 80 36 72 99 137
155 164 13 6 48 23 78 39 l55 27 3 -120 c3 -134 3 -135 -75 -186 -39 -26 -51
-29 -101 -25 -56 4 -55 3 26 -16 46 -11 96 -27 112 -35 33 -17 44 -19 35 -6
-3 5 -28 17 -55 26 l-51 17 43 31 c37 26 154 126 238 202 25 23 91 98 131 150
12 14 18 29 15 32 -4 4 -64 -1 -134 -11 -119 -16 -134 -21 -248 -77 -67 -33
-130 -69 -140 -80 -32 -36 -33 -19 0 59 69 164 113 296 122 370 7 54 3 59 -31
41z"/>
<path d="M3392 2695 c-46 -30 -86 -55 -89 -55 -2 0 -25 -15 -50 -32 -91 -65
-162 -114 -249 -173 -49 -32 -91 -62 -94 -65 -3 -3 -30 -24 -61 -47 l-56 -43
13 -107 c7 -60 15 -121 18 -138 6 -40 -2 126 -10 191 l-6 51 62 48 c34 26 101
74 148 106 48 32 119 81 157 108 39 28 90 62 115 77 25 15 75 46 112 70 36 24
69 44 72 44 3 0 7 -28 9 -62 l3 -63 2 73 c1 39 -1 72 -5 72 -5 0 -46 -25 -91
-55z"/>
<path d="M1815 2673 c145 -97 239 -223 301 -403 12 -36 22 -58 23 -50 2 34
-42 139 -109 258 -39 69 -235 242 -274 242 -6 0 21 -21 59 -47z"/>
<path d="M3494 2350 l1 -245 -75 -37 c-41 -21 -84 -41 -95 -44 -11 -4 -27 -12
-35 -19 -8 -7 -61 -36 -117 -65 l-103 -52 0 -177 0 -178 -77 -30 c-43 -17
-113 -43 -155 -59 -71 -26 -78 -31 -78 -56 0 -17 -7 -31 -20 -38 -16 -9 -22
-6 -35 21 -45 86 -58 195 -27 220 9 8 46 29 82 47 111 56 112 56 99 132 -6 36
-15 103 -19 150 l-9 85 5 -100 c2 -55 7 -123 10 -151 l6 -51 -68 -39 c-38 -22
-83 -46 -100 -53 -31 -12 -31 -13 -38 -103 -3 -50 -6 -146 -6 -213 l0 -121
-56 -24 c-47 -19 -58 -20 -65 -9 -6 10 -9 5 -9 -17 0 -45 -64 -177 -108 -223
-20 -21 -57 -53 -81 -70 -24 -17 -39 -31 -32 -31 15 0 75 44 114 84 23 23 31
26 38 15 12 -19 13 -18 -64 -103 l-68 -76 -91 0 c-76 0 -89 2 -79 14 7 8 22
17 34 20 37 9 100 37 95 42 -3 2 -31 -6 -64 -18 -55 -21 -75 -22 -314 -23
-218 0 -262 3 -300 17 -37 15 -47 15 -55 4 -5 -7 -21 -18 -34 -25 -21 -11 -28
-9 -70 20 -83 58 -232 181 -226 187 8 9 96 2 116 -9 17 -9 17 -7 2 43 -9 29
-19 67 -23 83 l-8 30 -1 -33 c-1 -18 6 -49 14 -69 19 -45 20 -44 -11 -33 -31
12 -84 13 -103 1 -14 -9 -11 -13 59 -73 42 -37 133 -108 139 -108 3 0 23 -16
45 -35 21 -19 42 -35 46 -35 5 0 22 11 39 26 27 22 34 24 68 15 21 -5 54 -13
73 -17 60 -11 311 -16 388 -6 72 8 82 6 61 -15 -17 -17 -1 -19 113 -13 101 5
107 6 128 32 11 15 41 49 65 75 45 48 55 79 33 101 -9 9 -8 16 4 29 9 10 18
27 20 38 2 13 15 22 38 27 19 4 83 18 143 30 l107 22 0 112 c0 61 3 138 6 171
l6 59 62 24 c33 12 90 34 126 47 36 13 77 29 93 35 l27 10 1 182 0 181 107 53
c59 29 141 71 182 92 41 22 80 40 85 40 6 0 20 8 33 18 l23 18 -9 245 -10 244
2 -245z m-796 -1008 c9 -16 19 -21 33 -17 18 6 19 0 19 -118 l0 -125 -62 -15
c-35 -8 -83 -18 -108 -22 -25 -3 -53 -9 -64 -12 -13 -4 -16 -1 -11 8 5 7 11
26 14 42 4 17 13 31 21 32 8 2 36 12 62 24 45 22 46 24 52 74 2 29 5 93 6 142
1 86 2 88 13 50 7 -22 18 -50 25 -63z"/>
<path d="M2142 2180 c0 -14 2 -19 5 -12 2 6 2 18 0 25 -3 6 -5 1 -5 -13z"/>
<path d="M994 2135 c-16 -39 62 -158 100 -153 28 4 31 29 10 75 -34 74 -95
118 -110 78z"/>
<path d="M2151 2133 c-2 -37 29 -104 81 -174 l48 -67 -30 -57 c-32 -60 -38
-103 -18 -123 18 -18 63 -15 105 8 l38 20 19 -38 c11 -20 29 -62 41 -92 l21
-55 -34 -35 c-50 -51 -65 -85 -50 -109 16 -26 51 -41 93 -41 19 0 37 -5 41
-11 3 -6 10 -54 14 -107 6 -85 7 -89 8 -32 4 219 -97 493 -263 712 -25 32 -45
61 -45 65 0 3 -7 14 -16 24 -8 9 -24 44 -34 76 -10 32 -19 48 -19 36z m178
-327 c18 -32 30 -60 28 -63 -3 -2 -14 -5 -26 -6 -11 -1 -21 -4 -21 -8 0 -10
-40 -19 -56 -12 -19 7 -18 42 2 89 16 38 34 67 39 62 2 -2 17 -29 34 -62z
m152 -347 c12 -38 20 -72 17 -74 -6 -6 -91 15 -105 27 -23 19 16 96 40 81 6
-3 7 -1 3 5 -8 13 0 32 14 32 5 0 19 -32 31 -71z"/>
<path d="M1264 2085 c-10 -8 -14 -15 -8 -15 5 0 19 7 30 15 10 8 14 15 8 15
-5 0 -19 -7 -30 -15z"/>
<path d="M1400 2079 c19 -12 45 -33 58 -47 12 -14 22 -20 22 -14 0 14 -83 82
-101 82 -8 0 2 -10 21 -21z"/>
<path d="M1221 2042 c-17 -31 -13 -40 5 -14 9 13 14 26 11 29 -3 2 -10 -4 -16
-15z"/>
<path d="M1481 1974 c0 -11 3 -14 6 -6 3 7 2 16 -1 19 -3 4 -6 -2 -5 -13z"/>
<path d="M1211 1938 c-1 -18 12 -39 44 -72 24 -25 50 -46 57 -46 7 0 -1 9 -19
21 -35 22 -65 62 -74 99 l-7 25 -1 -27z"/>
<path d="M1470 1873 c0 -18 -53 -47 -100 -55 -45 -7 -45 -7 8 -4 42 3 59 9 80
29 14 15 23 30 19 33 -4 4 -7 3 -7 -3z"/>
<path d="M1405 1655 c-73 -60 -79 -63 -99 -50 -11 9 -40 14 -66 14 -37 -1 -40
-3 -17 -8 l28 -6 -45 -61 c-24 -34 -56 -71 -71 -83 -15 -11 -23 -21 -18 -21
22 0 66 45 104 106 42 65 61 77 77 47 7 -12 2 -25 -22 -51 -68 -76 -108 -110
-134 -115 -15 -2 -36 -8 -47 -12 -18 -8 -18 -7 -6 8 14 18 5 22 -18 8 -10 -7
-41 5 -100 36 -143 77 -161 84 -182 78 -22 -7 -41 -47 -33 -68 3 -8 19 -21 37
-30 18 -9 39 -21 47 -25 17 -10 92 -44 132 -60 17 -7 28 -21 33 -41 6 -30 56
-81 79 -81 6 0 29 -9 51 -20 26 -13 57 -19 90 -19 l50 2 -55 6 c-54 6 -117 34
-133 59 -4 6 -13 12 -18 12 -6 0 -7 -5 -3 -12 5 -7 3 -8 -5 -4 -7 5 -10 10 -7
13 3 3 1 14 -5 24 -9 17 -6 19 31 19 l41 0 -3 42 c-3 39 -1 43 24 48 16 3 70
47 135 110 115 111 178 167 209 187 11 6 14 12 8 12 -6 1 -46 -28 -89 -64z"/>
<path d="M1130 1635 c14 -8 34 -14 45 -14 14 0 10 4 -14 14 -43 19 -64 19 -31
0z"/>
<path d="M1588 1363 c7 -3 16 -2 19 1 4 3 -2 6 -13 5 -11 0 -14 -3 -6 -6z"/>
<path d="M1545 1350 c-7 -11 -184 -101 -233 -118 -31 -11 -32 -12 -30 -69 l2
-58 3 50 c4 46 7 53 36 67 173 87 235 114 252 110 17 -4 18 -2 6 12 -15 18
-27 20 -36 6z"/>
</g>
</svg>
